<svg width="62" height="42" viewBox="0 0 62 42" fill="none" xmlns="http://www.w3.org/2000/svg">
<path fill-rule="evenodd" clip-rule="evenodd" d="M16.0995 14.2891L16.5 17.6468L5.03736 19.0138L6.73609 36.9896L20.1814 35.5066L20.5522 38.8677L3.69268 40.7274L1.36035 16.0468L16.0995 14.2891Z" fill="#28B8B8"/>
<path fill-rule="evenodd" clip-rule="evenodd" d="M0 25.9963L15.8673 24.0454L16.28 27.4017L0.412659 29.3526L0 25.9963Z" fill="#28B8B8"/>
<path fill-rule="evenodd" clip-rule="evenodd" d="M24.3722 40.8504L19.7073 8.09272L23.0551 7.61597L27.72 40.3737L24.3722 40.8504Z" fill="#28B8B8"/>
<path fill-rule="evenodd" clip-rule="evenodd" d="M31.9066 41.7082L29.4026 0.203641L32.778 0L35.282 41.5046L31.9066 41.7082Z" fill="#28B8B8"/>
<path d="M46.3132 27.8047C47.2829 27.8047 48.069 27.0186 48.069 26.0489C48.069 25.0792 47.2829 24.2931 46.3132 24.2931C45.3435 24.2931 44.5574 25.0792 44.5574 26.0489C44.5574 27.0186 45.3435 27.8047 46.3132 27.8047Z" fill="#28B8B8"/>
<path d="M52.1654 28.976C53.2069 28.976 54.0513 28.1608 54.0513 27.1552C54.0513 26.1496 53.2069 25.3344 52.1654 25.3344C51.1239 25.3344 50.2795 26.1496 50.2795 27.1552C50.2795 28.1608 51.1239 28.976 52.1654 28.976Z" fill="#28B8B8"/>
<path fill-rule="evenodd" clip-rule="evenodd" d="M41.4828 26.7015C40.8328 30.4382 43.5867 34.2644 47.9626 35.0257C52.3386 35.787 56.2229 33.1157 56.873 29.379C57.5231 25.6423 54.7692 21.8162 50.3932 21.0549C46.0172 20.2935 42.1329 22.9648 41.4828 26.7015ZM47.383 38.3572C41.4193 37.3197 37.139 31.941 38.1513 26.1219C39.1637 20.3028 45.0091 16.6858 50.9728 17.7233C56.9365 18.7609 61.2169 24.1395 60.2045 29.9586C59.1921 35.7777 53.3468 39.3947 47.383 38.3572Z" fill="#28B8B8"/>
</svg>
